<!-- Created with Inkscape (http://www.inkscape.org/) -->

<svg id="jlam" width="700" height="200" xmlns="http://www.w3.org/2000/svg">
<g transform="translate(2,64.029167)">
      <path stroke-width="3" stroke="#ff69b4"
         d="m 18.53642,7.7633344 q 0,3.0479996 -0.762,5.4609996 -0.7366,2.413 -2.2098,4.0894 -1.4478,1.651 -3.5814,2.54 -2.1335995,0.889 -4.9021994,0.889 -2.4638,0 -5.1308,-0.7112 0.0508,-0.7366 0.127,-1.4478 0.0762,-0.7366 0.1524,-1.4478 0.0508,-0.4318 0.3048,-0.6858 0.2794,-0.2794 0.8128,-0.2794 0.4572,0 1.2192,0.2286 0.762,0.2286 2.032,0.2286 1.6763999,0 2.9717999,-0.508 1.3207995,-0.508 2.2097995,-1.5748 0.9144,-1.0668 1.3716,-2.7178 0.4826,-1.6764 0.4826,-3.9623996 V -16.061865 h 4.9022 z"
         style="font-style:normal;font-variant:normal;font-weight:normal;font-stretch:normal;font-size:50.79999924px;line-height:7.61000013px;font-family:Lato;-inkscape-font-specification:'Lato, Normal';font-variant-ligatures:normal;font-variant-caps:normal;font-variant-numeric:normal;font-feature-settings:normal;text-align:start;letter-spacing:2.11666656px;writing-mode:lr-tb;text-anchor:start;stroke-width:0.26458332"
         id="path3774"
         inkscape:connector-curvature="0" />
      <path
         d="m 43.632943,16.424734 q 2.2606,0 4.0386,-0.762 1.778,-0.762 2.9972,-2.1336 1.2446,-1.3716 1.8796,-3.2766 0.6604,-1.9049996 0.6604,-4.1909996 V -16.061865 h 4.902199 V 6.0615344 q 0,3.1496 -1.016,5.8419996 -0.9906,2.6924 -2.8702,4.6736 -1.854199,1.9558 -4.546599,3.0734 -2.6924,1.1176 -6.0452,1.1176 -3.3528,0 -6.0452,-1.1176 -2.6924,-1.1176 -4.572,-3.0734 -1.8796,-1.9812 -2.8956,-4.6736 -0.9906,-2.6923996 -0.9906,-5.8419996 V -16.061865 h 4.9022 V 6.0361344 q 0,2.286 0.635,4.1909996 0.6604,1.905 1.8796,3.2766 1.2446,1.3716 3.0226,2.159 1.8034,0.762 4.064,0.762 z"
         style="font-style:normal;font-variant:normal;font-weight:normal;font-stretch:normal;font-size:50.79999924px;line-height:7.61000013px;font-family:Lato;-inkscape-font-specification:'Lato, Normal';font-variant-ligatures:normal;font-variant-caps:normal;font-variant-numeric:normal;font-feature-settings:normal;text-align:start;letter-spacing:2.11666656px;writing-mode:lr-tb;text-anchor:start;stroke-width:0.26458332"
         id="path3776"
         inkscape:connector-curvature="0" />
      <path
         d="m 87.35322,-10.372265 q -0.2286,0.3809997 -0.4826,0.5841997 -0.254,0.1778 -0.6604,0.1778 -0.4318,0 -1.016,-0.4317997 -0.5588,-0.4318 -1.4478,-0.9398 -0.8636,-0.5334 -2.1082,-0.9652 -1.2192,-0.4318 -2.9718,-0.4318 -1.650999,0 -2.920999,0.4572 -1.27,0.4318 -2.1336,1.1938 -0.8382,0.7619997 -1.27,1.8033997 -0.4318,1.016 -0.4318,2.2097999 0,1.524 0.7366,2.54 0.762,0.9906 1.9812,1.7018 1.2446,0.7112 2.794,1.2446 1.574799,0.50799994 3.200399,1.06679994 1.651,0.55879999 3.2004,1.26999996 1.5748,0.6858 2.794,1.7526 1.2446,1.0668 1.9812,2.6162 0.762,1.5493999 0.762,3.8099999 0,2.3875996 -0.8128,4.4957996 -0.8128,2.0828 -2.3876,3.6322 -1.5494,1.5494 -3.8354,2.4384 -2.2606,0.889 -5.156199,0.889 -3.5306,0 -6.4516,-1.27 -2.8956,-1.2954 -4.953,-3.4798 l 1.4224,-2.3368 q 0.2032,-0.2794 0.4826,-0.4572 0.3048,-0.2032 0.6604,-0.2032 0.5334,0 1.2192,0.5842 0.6858,0.5588 1.7018,1.2446 1.0414,0.6858 2.4892,1.27 1.4732,0.5588 3.5814,0.5588 1.752599,0 3.124199,-0.4826 1.3716,-0.4826 2.3114,-1.3462 0.9652,-0.889 1.4732,-2.1082 0.508,-1.2192 0.508,-2.7177996 0,-1.651 -0.762,-2.6924 -0.7366,-1.0668 -1.9558,-1.7779999 -1.2192,-0.7112 -2.794,-1.1938 -1.549399,-0.508 -3.200399,-1.016 -1.6256,-0.5334 -3.2004,-1.2192 -1.5494,-0.6858 -2.7686,-1.77799997 -1.2192,-1.09219998 -1.9812,-2.71779993 -0.7366,-1.651 -0.7366,-4.064 0,-1.9303999 0.7366,-3.7337996 0.762,-1.8034 2.1844,-3.2004 1.4224,-1.397 3.5052,-2.2352 2.1082,-0.8382 4.825999,-0.8382 3.048,0 5.5626,0.9652 2.5146,0.9652 4.3942,2.794 z"
         style="font-style:normal;font-variant:normal;font-weight:normal;font-stretch:normal;font-size:50.79999924px;line-height:7.61000013px;font-family:Lato;-inkscape-font-specification:'Lato, Normal';font-variant-ligatures:normal;font-variant-caps:normal;font-variant-numeric:normal;font-feature-settings:normal;text-align:start;letter-spacing:2.11666656px;writing-mode:lr-tb;text-anchor:start;stroke-width:0.26458332"
         id="path3778"
         inkscape:connector-curvature="0" />
      <path
         d="m 122.50496,-16.061865 v 4.1402 h -11.7602 v 32.257999 h -4.9276 V -11.921665 H 94.006165 v -4.1402 z"
         style="font-style:normal;font-variant:normal;font-weight:normal;font-stretch:normal;font-size:50.79999924px;line-height:7.61000013px;font-family:Lato;-inkscape-font-specification:'Lato, Normal';font-variant-ligatures:normal;font-variant-caps:normal;font-variant-numeric:normal;font-feature-settings:normal;text-align:start;letter-spacing:2.11666656px;writing-mode:lr-tb;text-anchor:start;stroke-width:0.26458332"
         id="path3780"
         inkscape:connector-curvature="0" />
      <path
         d="m 135.6373,20.336334 h -4.9276 v -36.398199 h 4.9276 z"
         style="font-style:normal;font-variant:normal;font-weight:normal;font-stretch:normal;font-size:50.79999924px;line-height:7.61000013px;font-family:Lato;-inkscape-font-specification:'Lato, Normal';font-variant-ligatures:normal;font-variant-caps:normal;font-variant-numeric:normal;font-feature-settings:normal;text-align:start;letter-spacing:2.11666656px;writing-mode:lr-tb;text-anchor:start;stroke-width:0.26458332"
         id="path3782"
         inkscape:connector-curvature="0" />
      <path
         d="m 150.0293,-16.061865 q 0.6604,0 0.9652,0.1778 0.3302,0.1524 0.7366,0.6604 l 21.082,27.431999 q -0.0762,-0.6604 -0.1016,-1.27 -0.0254,-0.635 -0.0254,-1.2191996 V -16.061865 h 4.318 v 36.398199 h -2.4892 q -0.5842,0 -0.9906,-0.2032 -0.381,-0.2032 -0.762,-0.6858 L 151.7057,-7.9592653 q 0.0508,0.6349999 0.0762,1.2445999 0.0254,0.6096 0.0254,1.1176 V 20.336334 h -4.318 v -36.398199 z"
         style="font-style:normal;font-variant:normal;font-weight:normal;font-stretch:normal;font-size:50.79999924px;line-height:7.61000013px;font-family:Lato;-inkscape-font-specification:'Lato, Normal';font-variant-ligatures:normal;font-variant-caps:normal;font-variant-numeric:normal;font-feature-settings:normal;text-align:start;letter-spacing:2.11666656px;writing-mode:lr-tb;text-anchor:start;stroke-width:0.26458332"
         id="path3784"
         inkscape:connector-curvature="0" />
      <path
         d="m 204.87056,16.196134 h 15.748 v 4.1402 h -20.6756 v -36.398199 h 4.9276 z"
         style="font-style:normal;font-variant:normal;font-weight:normal;font-stretch:normal;font-size:50.79999924px;line-height:7.61000013px;font-family:Lato;-inkscape-font-specification:'Lato, Normal';font-variant-ligatures:normal;font-variant-caps:normal;font-variant-numeric:normal;font-feature-settings:normal;text-align:start;letter-spacing:2.11666656px;writing-mode:lr-tb;text-anchor:start;stroke-width:0.26458332"
         id="path3786"
         inkscape:connector-curvature="0" />
      <path
         d="m 258.10074,20.336334 h -3.81 q -0.6604,0 -1.0668,-0.3302 -0.4064,-0.3302 -0.6096,-0.8382 l -3.4036,-8.7884 h -16.3322 l -3.4036,8.7884 q -0.1778,0.4572 -0.6096,0.8128 -0.4318,0.3556 -1.0668,0.3556 h -3.81 l 14.5542,-36.398199 h 5.0038 z M 234.25014,6.8235344 h 13.589 l -5.715,-14.8081997 q -0.5588,-1.3716 -1.0922,-3.4289997 -0.2794,1.0414 -0.5588,1.9303997 -0.254,0.8636 -0.508,1.524 z"
         style="font-style:normal;font-variant:normal;font-weight:normal;font-stretch:normal;font-size:50.79999924px;line-height:7.61000013px;font-family:Lato;-inkscape-font-specification:'Lato, Normal';font-variant-ligatures:normal;font-variant-caps:normal;font-variant-numeric:normal;font-feature-settings:normal;text-align:start;letter-spacing:2.11666656px;writing-mode:lr-tb;text-anchor:start;stroke-width:0.26458332"
         id="path3788"
         inkscape:connector-curvature="0" />
      <path
         d="m 282.70595,7.1791344 q 0.3556,0.6096 0.6096,1.2954 0.2794,0.6604 0.5334,1.3462 0.254,-0.7112 0.5334,-1.3462 0.2794,-0.6604 0.635,-1.3208 l 12.319,-22.3773994 q 0.3302,-0.5842 0.6858,-0.7112 0.3556,-0.127 1.016,-0.127 h 3.6322 v 36.398199 h -4.318 V -6.4098654 q 0,-0.5334 0.0254,-1.143 0.0254,-0.6095999 0.0762,-1.2445999 l -12.4714,22.7583993 q -0.635,1.143 -1.778,1.143 h -0.7112 q -1.143,0 -1.778,-1.143 l -12.7508,-22.8345993 q 0.0762,0.6604 0.1016,1.2953999 0.0508,0.635 0.0508,1.1684 V 20.336334 h -4.318 v -36.398199 h 3.6322 q 0.6604,0 1.016,0.127 0.3556,0.127 0.6858,0.7112 z"
         style="font-style:normal;font-variant:normal;font-weight:normal;font-stretch:normal;font-size:50.79999924px;line-height:7.61000013px;font-family:Lato;-inkscape-font-specification:'Lato, Normal';font-variant-ligatures:normal;font-variant-caps:normal;font-variant-numeric:normal;font-feature-settings:normal;text-align:start;letter-spacing:2.11666656px;writing-mode:lr-tb;text-anchor:start;stroke-width:0.26458332"
         id="path3790"
         inkscape:connector-curvature="0" />
</g>
</svg>
